<?xml version="1.0" encoding="UTF-8"?>
<svg id="Capa_1" xmlns="http://www.w3.org/2000/svg" version="1.1" viewBox="0 0 214 50">
  <!-- Generator: Adobe Illustrator 29.6.1, SVG Export Plug-In . SVG Version: 2.1.1 Build 9)  -->
  <defs>
    <style>
      .st0 {
        fill: #006cb1;
      }

      .st0, .st1 {
        fill-rule: evenodd;
      }

      .st1, .st2 {
        fill: #1a171c;
      }

      .st3 {
        fill: #231f20;
      }

      .st4 {
        fill: #006cb2;
      }
    </style>
  </defs>
  <path class="st0" d="M219.83-95.16v-.64c0-1.16-.08-2.28-.25-3.36h6.45c2.44,0,4.44,2,4.44,4.42v19.13c0,2.42-1.99,4.43-4.44,4.43h-37.75c-2.43,0-4.42-2.01-4.42-4.43v-19.13c0-2.42,1.99-4.42,4.42-4.42h6.55c-.21,1.15-.32,2.33-.31,3.5,0,7.68,4.89,13.81,13,13.81,5.52,0,9.88-2.84,12.48-7.59l-4.99-2.81c-1.82,3.02-3.54,5.1-7.41,5.1-4.13,0-6.87-3.43-7.15-7.36l-.06-.65h19.45Z"/>
  <path class="st1" d="M194.83-99.16c1.12-6.19,5.32-10.66,12.58-10.66s11.13,4.57,12.17,10.66h-5.73c-.72-3.28-3.01-5.31-6.44-5.31s-5.87,2.2-6.63,5.31c0,0-5.95,0-5.95,0Z"/>
  <path class="st2" d="M344.96-108.85h4.48v36.07h-4.48v-36.07ZM293.37-92.86c1.25-1.44,3.12-2.49,5.15-2.49,2.54,0,4.52,1.23,5.87,3.31,1.46-2.01,3.77-3.31,6.27-3.31,5.8,0,7.23,4.56,7.23,9.24v13.34h-4.55v-12.69c0-2.73-.63-5.57-3.6-5.57-3.73,0-4.1,3.83-4.1,7.11v11.15h-4.78v-11.94c0-2.33,0-6.32-3.33-6.32-3.74,0-4.44,3.78-4.44,7.11v11.15h-4.45v-21.97h4.73v1.89h0ZM259.23-108.85h4.45v36.03h-4.45v-36.03Z"/>
  <path class="st1" d="M247.04-91.12c-2.7,0-4.72,1.78-5.31,4.28h10.46c-.57-2.6-2.39-4.28-5.14-4.28M257.02-84.04v1h-15.6c.21,3.16,2.39,5.97,5.72,5.97,3.12,0,4.51-1.66,6-4.13l3.98,2.26c-2.08,3.85-5.58,6.15-9.99,6.15-6.55,0-10.49-4.92-10.49-11.14s3.51-11.43,10.39-11.43c6.8,0,9.98,5.08,9.98,11.32M276.27-91.11c-2.65,0-4.68,1.81-5.27,4.34h10.36c-.61-2.65-2.39-4.34-5.09-4.34M286.08-84.03v1.04h-15.35c.21,3.14,2.38,5.93,5.65,5.93,3.08,0,4.47-1.66,5.93-4.07l3.93,2.24c-2.06,3.82-5.49,6.14-9.88,6.14-6.43,0-10.31-4.93-10.31-11.15s3.44-11.36,10.22-11.36c6.7,0,9.81,5.04,9.81,11.23M325.78-84.12c0,3.72,2.17,7.05,6.07,7.05s6.24-3.17,6.24-7.05-2.28-6.92-6.24-6.92-6.07,3.26-6.07,6.92M326-92.04c1.66-2.01,3.98-3.31,6.77-3.31,6.15,0,10.04,5.39,10.04,11.11,0,6.02-3.64,11.45-10.19,11.45-2.64,0-5-1.28-6.62-3.21v14.53h-4.76v-33.27h4.76v2.7h0ZM362.02-91.12c-2.71,0-4.73,1.78-5.31,4.28h10.51c-.62-2.6-2.45-4.28-5.2-4.28M372-84.04v1h-15.6c.21,3.16,2.45,5.97,5.79,5.97,3.1,0,4.44-1.66,5.94-4.13l4.04,2.26c-2.1,3.85-5.57,6.15-10.04,6.15-6.55,0-10.49-4.92-10.49-11.14s3.52-11.43,10.39-11.43c6.86,0,9.98,5.08,9.98,11.32M385.52-95.27c-6.27,0-11.23,4.89-11.23,11.23s4.96,11.28,11.23,11.28,11.34-4.9,11.34-11.28c0-6.34-4.99-11.23-11.34-11.23M385.52-77.3c-3.61,0-6.56-3.09-6.56-6.73s2.95-6.7,6.56-6.7,6.64,3.06,6.64,6.7c0,3.64-2.94,6.73-6.64,6.73"/>
  <g>
    <g>
      <path class="st3" d="M18.56,41s.03.06.02.1l-.14,1.13s-.02.07-.05.1c-.03.03-.07.04-.1.04h-2s-.05.02-.07.06l-.8,6.47s-.03.07-.05.1c-.03.03-.06.04-.1.04h-1.3s-.07-.01-.09-.04c-.02-.03-.03-.06-.02-.1l.78-6.47s0-.06-.05-.06h-1.95s-.07-.01-.09-.04c-.02-.03-.03-.06-.02-.1l.14-1.13s.02-.07.05-.1c.03-.03.06-.04.1-.04h5.64s.07.01.09.04Z"/>
      <path class="st3" d="M19.73,48.49c-.47-.45-.71-1.05-.71-1.81,0-.14.01-.29.03-.45l.3-2.47c.07-.57.25-1.07.55-1.51s.69-.78,1.16-1.02c.47-.24,1-.36,1.59-.36.81,0,1.45.22,1.92.67.47.45.71,1.04.71,1.78,0,.15-.01.3-.03.45l-.3,2.47c-.07.58-.25,1.09-.55,1.53-.3.44-.69.79-1.16,1.03-.48.25-1.01.37-1.59.37-.8,0-1.44-.23-1.91-.67ZM22.85,47.36c.28-.27.45-.63.51-1.07l.31-2.54c0-.05.01-.13.01-.24,0-.38-.11-.69-.32-.91-.22-.22-.51-.33-.89-.33-.41,0-.75.14-1.04.41-.28.27-.45.63-.51,1.08l-.31,2.54c0,.05-.01.13-.01.24,0,.38.11.68.32.9.22.22.51.33.88.33.42,0,.76-.13,1.04-.4Z"/>
      <path class="st3" d="M26.43,49s-.03-.06-.02-.1l.96-7.8s.02-.07.05-.1.06-.04.1-.04h2.8c.77,0,1.38.19,1.83.57.45.38.68.89.68,1.53,0,.08,0,.19-.02.35l-.39,3.18c-.05.48-.22.91-.5,1.28-.28.37-.64.66-1.09.86-.45.2-.95.31-1.51.31h-2.8s-.07-.01-.09-.04ZM28.2,47.64h1.36c.35,0,.64-.12.88-.36.24-.24.38-.56.44-.96l.33-2.65c0-.05.01-.13.01-.22,0-.34-.09-.61-.27-.8-.18-.2-.43-.29-.76-.29h-1.35s-.03,0-.04.02c-.01.01-.02.02-.02.04l-.63,5.17s.02.06.05.06Z"/>
      <path class="st3" d="M34.73,48.49c-.47-.45-.71-1.05-.71-1.81,0-.14.01-.29.03-.45l.3-2.47c.07-.57.25-1.07.55-1.51s.69-.78,1.16-1.02c.47-.24,1-.36,1.59-.36.81,0,1.45.22,1.92.67.47.45.71,1.04.71,1.78,0,.15-.01.3-.03.45l-.3,2.47c-.07.58-.25,1.09-.55,1.53-.3.44-.69.79-1.16,1.03-.48.25-1.01.37-1.59.37-.8,0-1.44-.23-1.91-.67ZM37.86,47.36c.28-.27.45-.63.51-1.07l.31-2.54c0-.05.01-.13.01-.24,0-.38-.11-.69-.32-.91-.22-.22-.51-.33-.89-.33-.41,0-.75.14-1.04.41-.28.27-.45.63-.51,1.08l-.31,2.54c0,.05-.01.13-.01.24,0,.38.11.68.32.9.22.22.51.33.88.33.42,0,.76-.13,1.04-.4Z"/>
      <path class="st3" d="M42.1,48.56c-.48-.38-.72-.89-.72-1.53,0-.07,0-.17.02-.31l.03-.25s.03-.07.05-.1c.03-.03.06-.04.1-.04h1.28s.07.01.09.04c.02.03.03.06.02.1l-.02.17c-.04.31.07.57.32.78.25.21.61.32,1.08.32.43,0,.76-.1.97-.29.22-.19.33-.43.33-.7,0-.17-.06-.31-.17-.43-.11-.12-.26-.22-.45-.31s-.49-.21-.89-.37c-.45-.17-.82-.34-1.13-.5-.31-.16-.57-.39-.77-.66-.21-.28-.31-.62-.31-1.03,0-.05,0-.15.02-.29.08-.7.4-1.26.96-1.67.55-.41,1.24-.62,2.05-.62.52,0,.99.09,1.39.27.4.18.72.43.93.76.22.33.33.71.33,1.15,0,.06,0,.16-.02.3l-.02.17s-.03.07-.05.1c-.03.03-.06.04-.1.04h-1.29s-.07-.01-.09-.04c-.02-.03-.03-.06-.02-.1v-.09c.05-.32-.04-.6-.27-.82-.23-.23-.57-.34-1.02-.34-.38,0-.68.09-.9.26s-.33.41-.33.71c0,.17.05.31.16.43.11.12.27.22.48.32.21.1.53.23.96.4.48.19.85.36,1.11.49.27.13.51.34.72.61.22.27.32.61.32,1.02,0,.05,0,.15-.02.29-.09.72-.42,1.29-.99,1.71-.57.42-1.29.63-2.16.63s-1.5-.19-1.98-.57Z"/>
      <path class="st3" d="M57.27,41.52c.4.38.59.89.59,1.54,0,.08,0,.21-.02.39-.06.48-.22.91-.48,1.28-.26.37-.59.66-1,.86-.41.2-.86.31-1.36.31h-1.59s-.05.02-.07.06l-.36,2.94s-.03.07-.05.1c-.03.03-.06.04-.1.04h-1.3c-.08,0-.13-.05-.13-.14l.97-7.81s.02-.07.05-.1c.03-.03.07-.04.1-.04h3.15c.67,0,1.2.19,1.6.57ZM55.91,44.23c.25-.24.37-.55.37-.92,0-.29-.09-.52-.28-.7s-.43-.26-.74-.26h-1.42s-.05.02-.07.06l-.25,2.12s0,.06.05.06h1.42c.37,0,.68-.12.92-.36Z"/>
      <path class="st3" d="M59.56,48.49c-.47-.45-.71-1.05-.71-1.81,0-.14.01-.29.03-.45l.3-2.47c.07-.57.25-1.07.55-1.51s.69-.78,1.16-1.02c.47-.24,1-.36,1.59-.36.81,0,1.45.22,1.92.67.47.45.71,1.04.71,1.78,0,.15-.01.3-.03.45l-.3,2.47c-.07.58-.25,1.09-.55,1.53-.3.44-.69.79-1.16,1.03-.48.25-1.01.37-1.59.37-.8,0-1.44-.23-1.91-.67ZM62.69,47.36c.28-.27.45-.63.51-1.07l.31-2.54c0-.05.01-.13.01-.24,0-.38-.11-.69-.32-.91-.22-.22-.51-.33-.89-.33-.41,0-.75.14-1.04.41-.28.27-.45.63-.51,1.08l-.31,2.54c0,.05-.01.13-.01.24,0,.38.11.68.32.9.22.22.51.33.88.33.42,0,.76-.13,1.04-.4Z"/>
      <path class="st3" d="M66.27,49s-.03-.06-.02-.1l.96-7.8s.02-.07.05-.1.06-.04.1-.04h2.8c.77,0,1.38.19,1.83.57.45.38.68.89.68,1.53,0,.08,0,.19-.02.35l-.39,3.18c-.05.48-.22.91-.5,1.28-.28.37-.64.66-1.09.86-.45.2-.95.31-1.51.31h-2.8s-.07-.01-.09-.04ZM68.04,47.64h1.36c.35,0,.64-.12.88-.36.24-.24.38-.56.44-.96l.33-2.65c0-.05.01-.13.01-.22,0-.34-.09-.61-.27-.8-.18-.2-.43-.29-.76-.29h-1.35s-.03,0-.04.02c-.01.01-.02.02-.02.04l-.63,5.17s.02.06.05.06Z"/>
      <path class="st3" d="M79.94,42.32s-.06.04-.1.04h-3.68s-.03,0-.04.02c-.01.01-.02.02-.02.04l-.22,1.79s.02.06.05.06h2.41s.07.01.09.04c.02.03.03.06.02.1l-.14,1.12s-.03.07-.05.1c-.03.03-.06.04-.1.04h-2.41s-.06.02-.06.06l-.23,1.87s.02.06.05.06h3.67c.08,0,.13.05.13.14l-.14,1.12s-.03.07-.05.1c-.03.03-.06.04-.1.04h-5.18s-.07-.01-.09-.04c-.02-.03-.03-.06-.02-.1l.96-7.8s.02-.07.05-.1.06-.04.1-.04h5.17s.07.01.1.04c.03.03.04.06.03.1l-.14,1.12s-.03.07-.05.1Z"/>
      <path class="st3" d="M87.02,40.96h1.3s.07.01.09.04c.02.03.03.06.02.1l-.96,7.8s-.02.07-.05.1c-.03.03-.07.04-.1.04h-1.3s-.07-.01-.09-.04c-.02-.03-.03-.06-.02-.1l.62-5.09s0-.05-.02-.05-.03.01-.05.03l-1.42,1.91c-.05.06-.1.09-.17.09h-.66c-.07,0-.12-.03-.14-.09l-.96-1.91s-.02-.03-.03-.03c-.02,0-.03.02-.03.05l-.62,5.07s-.03.07-.05.1c-.03.03-.06.04-.1.04h-1.31s-.07-.01-.09-.04c-.02-.03-.03-.06-.02-.1l.96-7.8s.02-.07.05-.1.06-.04.1-.04h1.31c.07,0,.12.03.14.09l1.35,2.69s.05.05.07,0l2.02-2.69c.05-.06.1-.09.17-.09Z"/>
      <path class="st3" d="M90.27,48.49c-.47-.45-.71-1.05-.71-1.81,0-.14.01-.29.03-.45l.3-2.47c.07-.57.25-1.07.55-1.51.3-.44.69-.78,1.16-1.02.47-.24,1-.36,1.59-.36.81,0,1.45.22,1.92.67.47.45.71,1.04.71,1.78,0,.15-.01.3-.03.45l-.3,2.47c-.07.58-.25,1.09-.55,1.53-.3.44-.69.79-1.16,1.03-.48.25-1.01.37-1.59.37-.8,0-1.44-.23-1.91-.67ZM93.39,47.36c.28-.27.45-.63.51-1.07l.31-2.54c0-.05.01-.13.01-.24,0-.38-.11-.69-.32-.91-.22-.22-.51-.33-.89-.33-.41,0-.75.14-1.04.41-.28.27-.45.63-.51,1.08l-.31,2.54c0,.05-.01.13-.01.24,0,.38.11.68.32.9.21.22.51.33.88.33.42,0,.76-.13,1.04-.4Z"/>
      <path class="st3" d="M97.64,48.56c-.48-.38-.72-.89-.72-1.53,0-.07,0-.17.02-.31l.03-.25s.02-.07.05-.1.06-.04.1-.04h1.28s.07.01.09.04c.02.03.03.06.02.1l-.02.17c-.04.31.07.57.32.78.25.21.61.32,1.08.32.43,0,.76-.1.97-.29.22-.19.33-.43.33-.7,0-.17-.06-.31-.17-.43-.11-.12-.26-.22-.45-.31-.19-.09-.49-.21-.89-.37-.45-.17-.82-.34-1.13-.5-.31-.16-.57-.39-.77-.66-.21-.28-.31-.62-.31-1.03,0-.05,0-.15.02-.29.08-.7.4-1.26.96-1.67s1.24-.62,2.05-.62c.52,0,.99.09,1.39.27s.72.43.93.76c.22.33.33.71.33,1.15,0,.06,0,.16-.02.3l-.02.17s-.02.07-.05.1c-.03.03-.06.04-.1.04h-1.29s-.07-.01-.09-.04c-.02-.03-.03-.06-.02-.1v-.09c.05-.32-.04-.6-.27-.82s-.57-.34-1.02-.34c-.38,0-.68.09-.9.26s-.33.41-.33.71c0,.17.05.31.16.43s.27.22.48.32c.21.1.53.23.96.4.48.19.85.36,1.11.49.27.13.51.34.72.61.21.27.32.61.32,1.02,0,.05,0,.15-.02.29-.09.72-.42,1.29-.99,1.71s-1.29.63-2.16.63-1.5-.19-1.98-.57Z"/>
      <path class="st3" d="M113.47,41s.03.06.02.1l-.14,1.13s-.02.07-.05.1c-.03.03-.07.04-.1.04h-2s-.05.02-.07.06l-.8,6.47s-.03.07-.05.1c-.03.03-.06.04-.1.04h-1.3s-.07-.01-.09-.04c-.02-.03-.03-.06-.02-.1l.78-6.47s0-.06-.05-.06h-1.95s-.07-.01-.09-.04c-.02-.03-.03-.06-.02-.1l.14-1.13s.02-.07.05-.1.06-.04.1-.04h5.64s.07.01.09.04Z"/>
      <path class="st3" d="M120.32,42.32s-.06.04-.1.04h-3.68s-.03,0-.04.02c-.01.01-.02.02-.02.04l-.22,1.79s.02.06.05.06h2.41s.07.01.09.04c.02.03.03.06.02.1l-.14,1.12s-.03.07-.05.1c-.03.03-.06.04-.1.04h-2.41s-.06.02-.06.06l-.23,1.87s.02.06.05.06h3.67c.08,0,.13.05.13.14l-.14,1.12s-.02.07-.05.1c-.03.03-.06.04-.1.04h-5.18s-.07-.01-.09-.04c-.02-.03-.03-.06-.02-.1l.96-7.8s.02-.07.05-.1.06-.04.1-.04h5.17s.07.01.1.04c.03.03.04.06.03.1l-.14,1.12s-.03.07-.05.1Z"/>
      <path class="st3" d="M126.73,41s.06-.04.1-.04h1.31s.07.01.09.04c.02.03.03.06.02.1l-.96,7.8s-.03.07-.05.1-.06.04-.1.04h-1.27c-.07,0-.12-.03-.14-.09l-2.29-4.94s-.02-.03-.03-.03c-.02,0-.03.02-.03.05l-.58,4.87s-.02.07-.05.1c-.03.03-.06.04-.1.04h-1.31s-.07-.01-.09-.04c-.02-.03-.03-.06-.02-.1l.96-7.8s.02-.07.05-.1.06-.04.1-.04h1.27c.07,0,.12.03.15.09l2.28,4.91s.02.03.03.03c.02,0,.03-.02.03-.05l.58-4.84s.02-.07.05-.1Z"/>
      <path class="st3" d="M135.4,42.32s-.06.04-.1.04h-3.68s-.03,0-.04.02c-.01.01-.02.02-.02.04l-.22,1.79s.02.06.05.06h2.41s.07.01.09.04c.02.03.03.06.02.1l-.14,1.12s-.03.07-.05.1c-.03.03-.06.04-.1.04h-2.41s-.06.02-.06.06l-.23,1.87s.02.06.05.06h3.67c.08,0,.13.05.13.14l-.14,1.12s-.02.07-.05.1c-.03.03-.06.04-.1.04h-5.18s-.07-.01-.09-.04c-.02-.03-.03-.06-.02-.1l.96-7.8s.02-.07.05-.1.06-.04.1-.04h5.17s.07.01.1.04c.03.03.04.06.03.1l-.14,1.12s-.03.07-.05.1Z"/>
      <path class="st3" d="M140.44,48.93l-1-3.2s-.04-.05-.07-.05h-1.04s-.06.02-.06.06l-.39,3.15s-.02.07-.05.1c-.03.03-.06.04-.1.04h-1.31s-.07-.01-.09-.04c-.02-.03-.03-.06-.02-.1l.96-7.8s.02-.07.05-.1.06-.04.1-.04h3.21c.65,0,1.17.18,1.55.55.38.37.57.87.57,1.49,0,.08,0,.21-.02.39-.06.52-.24.97-.54,1.34-.3.37-.68.64-1.15.79-.05.02-.06.04-.05.08l1.12,3.26s.01.03.01.06c0,.07-.04.1-.13.1h-1.38c-.07,0-.12-.03-.14-.1ZM138.69,42.38s-.02.02-.02.04l-.24,1.97s.02.06.05.06h1.46c.35,0,.63-.11.87-.33s.35-.5.35-.85c0-.28-.09-.5-.26-.66s-.4-.25-.69-.25h-1.48s-.03,0-.04.02Z"/>
      <path class="st3" d="M147.48,48.48c-.47-.43-.7-1.01-.7-1.73,0-.08,0-.21.02-.39l.65-5.26s.03-.07.06-.1.07-.04.1-.04h1.3s.07.01.09.04c.02.03.03.06.02.1l-.65,5.27c0,.05-.01.13-.01.22,0,.35.1.62.31.83.21.21.49.31.85.31.39,0,.72-.13,1-.37.27-.25.44-.58.49-.99l.65-5.27s.03-.07.05-.1c.03-.03.06-.04.1-.04h1.31s.07.01.09.04.03.06.02.1l-.65,5.26c-.07.55-.25,1.03-.54,1.45-.29.42-.67.74-1.14.97-.47.23-.99.35-1.56.35-.79,0-1.42-.22-1.89-.65Z"/>
      <path class="st3" d="M159.68,41s.06-.04.1-.04h1.31s.07.01.09.04c.02.03.03.06.02.1l-.96,7.8s-.03.07-.05.1-.06.04-.1.04h-1.27c-.07,0-.12-.03-.14-.09l-2.29-4.94s-.02-.03-.03-.03c-.02,0-.03.02-.03.05l-.58,4.87s-.02.07-.05.1c-.03.03-.06.04-.1.04h-1.31s-.07-.01-.09-.04c-.02-.03-.03-.06-.02-.1l.96-7.8s.02-.07.05-.1.06-.04.1-.04h1.27c.07,0,.12.03.15.09l2.28,4.91s.02.03.03.03c.02,0,.03-.02.03-.05l.58-4.84s.02-.07.05-.1Z"/>
      <path class="st3" d="M165.04,49s-.03-.06-.02-.1l.96-7.8s.02-.07.05-.1.06-.04.1-.04h1.31s.07.01.09.04c.02.03.03.06.02.1l-.8,6.48s.02.06.05.06h3.66c.08,0,.13.05.13.14l-.14,1.12s-.03.07-.05.1c-.03.03-.06.04-.1.04h-5.17s-.07-.01-.09-.04Z"/>
      <path class="st3" d="M172.92,48.48c-.47-.43-.7-1.01-.7-1.73,0-.08,0-.21.02-.39l.65-5.26s.03-.07.06-.1.07-.04.1-.04h1.3s.07.01.09.04c.02.03.03.06.02.1l-.65,5.27c0,.05-.01.13-.01.22,0,.35.1.62.31.83.21.21.49.31.85.31.39,0,.72-.13,1-.37.27-.25.44-.58.49-.99l.65-5.27s.03-.07.05-.1c.03-.03.06-.04.1-.04h1.31s.07.01.09.04.03.06.02.1l-.65,5.26c-.07.55-.25,1.03-.54,1.45-.29.42-.67.74-1.14.97-.47.23-.99.35-1.56.35-.79,0-1.42-.22-1.89-.65Z"/>
      <path class="st3" d="M180.39,48.47c-.47-.44-.7-1.02-.7-1.75,0-.18,0-.33.02-.43l.32-2.58c.07-.56.25-1.06.54-1.49.29-.43.67-.76,1.14-1,.47-.23.99-.35,1.57-.35.52,0,.98.1,1.37.29s.69.47.91.81.32.74.32,1.18c0,.08,0,.18-.02.32v.08s-.04.07-.06.1-.06.04-.1.04h-1.31s-.07-.01-.09-.04-.03-.06-.02-.1v-.03s.02-.09.02-.16c0-.32-.1-.59-.31-.79-.21-.2-.5-.31-.87-.31-.4,0-.74.13-1.01.39-.27.26-.44.59-.49,1.01l-.32,2.68s-.01.12-.01.21c0,.35.11.64.34.86s.52.33.88.33c.39,0,.72-.11.97-.32.25-.21.4-.51.45-.88l.07-.52s-.02-.06-.05-.06h-1.26s-.07-.01-.09-.04-.03-.06-.02-.1l.13-1.06s.03-.07.05-.1c.03-.03.06-.04.1-.04h2.73s.07.01.09.04c.02.03.03.06.02.1l-.18,1.52c-.11.88-.46,1.58-1.04,2.09-.59.51-1.32.76-2.2.76-.79,0-1.42-.22-1.89-.66Z"/>
      <path class="st3" d="M191.63,48.92l-.2-1.13s0-.02-.01-.03c0-.01-.02-.02-.03-.02h-2.76s-.04.02-.06.05l-.47,1.13c-.02.08-.07.12-.15.12h-1.43s-.08-.02-.1-.05c-.02-.03-.02-.07,0-.12l3.38-7.8c.04-.08.09-.12.16-.12h1.75c.07,0,.12.04.14.12l1.45,7.8v.03s-.01.07-.03.09-.05.03-.09.03h-1.43c-.07,0-.11-.04-.13-.12ZM189.17,46.49h1.97s.06-.02.06-.07l-.59-3.43s-.02-.04-.03-.04-.03.02-.03.04l-1.41,3.43s0,.07.03.07Z"/>
      <path class="st3" d="M199.02,48.93l-1-3.2s-.04-.05-.07-.05h-1.04s-.06.02-.06.06l-.39,3.15s-.02.07-.05.1c-.03.03-.06.04-.1.04h-1.31s-.07-.01-.09-.04c-.02-.03-.03-.06-.02-.1l.96-7.8s.02-.07.05-.1.06-.04.1-.04h3.21c.65,0,1.17.18,1.55.55.38.37.57.87.57,1.49,0,.08,0,.21-.02.39-.06.52-.24.97-.54,1.34-.3.37-.68.64-1.15.79-.05.02-.06.04-.05.08l1.12,3.26s.01.03.01.06c0,.07-.04.1-.13.1h-1.38c-.07,0-.12-.03-.14-.1ZM197.27,42.38s-.02.02-.02.04l-.24,1.97s.02.06.05.06h1.46c.35,0,.63-.11.87-.33s.35-.5.35-.85c0-.28-.09-.5-.26-.66s-.4-.25-.69-.25h-1.48s-.03,0-.04.02Z"/>
    </g>
    <g>
      <rect class="st3" x="132.37" y="3.37" width="3.77" height="26.4"/>
      <path class="st3" d="M89.61,13c1.04-1.21,2.58-2.09,4.26-2.09,2.18,0,3.79,1.03,4.92,2.74,1.18-1.67,3.17-2.74,5.25-2.74,4.8,0,5.99,3.81,5.99,7.71v11.14h-3.78v-10.59c0-2.27-.5-4.67-3.01-4.67-3.12,0-3.43,3.2-3.43,5.94v9.32h-3.95v-9.97c0-1.96,0-5.28-2.8-5.28-3.12,0-3.72,3.17-3.72,5.94v9.32h-3.69V11.42h3.95v1.58Z"/>
      <polygon class="st3" points="61.45 3.36 65.18 3.34 65.18 29.73 61.45 29.73 61.45 3.36"/>
      <path class="st3" d="M59.58,20.34v.84h-13.02c.18,2.65,2.01,4.98,4.8,4.98,2.59,0,3.75-1.39,4.99-3.43l3.34,1.88c-1.74,3.22-4.66,5.15-8.36,5.15-5.44,0-8.72-4.13-8.72-9.32s2.9-9.53,8.65-9.53,8.33,4.23,8.33,9.42M51.26,14.43c-2.24,0-3.94,1.5-4.45,3.6h8.75c-.47-2.19-2-3.6-4.3-3.6"/>
      <path class="st3" d="M83.79,20.37v.85h-12.83c.18,2.64,1.99,4.98,4.74,4.98,2.55,0,3.69-1.4,4.91-3.43l3.29,1.89c-1.72,3.2-4.59,5.13-8.26,5.13-5.35,0-8.6-4.12-8.6-9.3s2.87-9.51,8.53-9.51,8.21,4.22,8.21,9.4M75.58,14.47c-2.21,0-3.89,1.49-4.39,3.6h8.63c-.48-2.2-1.98-3.6-4.24-3.6"/>
      <path class="st3" d="M116.44,13.69c1.39-1.69,3.33-2.77,5.69-2.77,5.17,0,8.37,4.47,8.37,9.28s-3,9.57-8.51,9.57c-2.23,0-4.17-1.08-5.55-2.69v10.65h-3.95V11.43h3.95v2.26ZM116.26,20.3c0,3.09,1.85,5.86,5.06,5.86s5.22-2.63,5.22-5.86-1.91-5.79-5.22-5.79-5.06,2.74-5.06,5.79"/>
      <path class="st3" d="M154.99,20.34v.84h-13.02c.18,2.65,2.02,4.98,4.8,4.98,2.59,0,3.75-1.39,4.99-3.43l3.34,1.88c-1.74,3.22-4.66,5.15-8.37,5.15-5.44,0-8.72-4.13-8.72-9.32s2.91-9.53,8.65-9.53,8.33,4.23,8.33,9.42M146.66,14.43c-2.23,0-3.94,1.5-4.44,3.6h8.75c-.48-2.19-2-3.6-4.31-3.6"/>
      <path class="st3" d="M166.29,25.97c-3.05,0-5.5-2.57-5.5-5.6s2.45-5.61,5.5-5.61,5.5,2.54,5.5,5.61-2.45,5.6-5.5,5.6M166.29,10.96c-5.28,0-9.43,4.08-9.43,9.4s4.16,9.41,9.43,9.41,9.44-4.09,9.44-9.41-4.16-9.4-9.44-9.4"/>
      <path class="st4" d="M30.59,12.36v-.52c0-.93-.07-1.82-.22-2.68h5.16c1.96,0,3.55,1.59,3.55,3.55v15.25c0,1.95-1.59,3.55-3.55,3.55H5.38c-1.96,0-3.55-1.6-3.55-3.55v-15.25c0-1.96,1.59-3.55,3.55-3.55h5.21c-.16.9-.24,1.83-.24,2.81,0,6.14,3.93,11.04,10.4,11.04,4.41,0,7.89-2.28,9.97-6.09l-3.98-2.23c-1.47,2.41-2.86,4.08-5.95,4.08-3.3,0-5.49-2.74-5.71-5.87l-.03-.52h15.54Z"/>
      <path class="st3" d="M10.6,9.16C11.49,4.2,14.87.66,20.67.66s8.9,3.64,9.71,8.5h-4.58c-.58-2.6-2.38-4.24-5.13-4.24s-4.7,1.75-5.29,4.24h-4.77Z"/>
      <g>
        <path class="st4" d="M176.08,30.64c-.39,0-.72-.14-1-.41-.28-.27-.41-.61-.41-1.03,0-.44.14-.79.41-1.04.28-.26.61-.39,1-.39s.72.13,1,.39c.28.26.41.61.41,1.04,0,.41-.14.76-.41,1.03-.28.27-.61.41-1,.41Z"/>
        <path class="st3" d="M186.44,26.54l-.04.06c-.28.44-.62.76-1.01.97-.4.21-.83.31-1.29.31-.53,0-1.02-.12-1.44-.35-.42-.23-.76-.56-1-.99-.24-.43-.36-.95-.36-1.56s.12-1.12.36-1.56c.24-.43.58-.76,1-.99.43-.23.91-.35,1.44-.35.46,0,.89.1,1.29.31.4.21.74.53,1.01.97l.04.06,1.84-1.07-.03-.06c-.37-.74-.93-1.3-1.64-1.68-.71-.38-1.55-.57-2.48-.57-1.01,0-1.91.21-2.7.63-.79.42-1.41,1.01-1.85,1.75-.44.74-.67,1.6-.67,2.56s.23,1.81.67,2.55c.44.74,1.07,1.34,1.85,1.76.78.43,1.69.64,2.7.64.93,0,1.77-.2,2.49-.59.72-.39,1.27-.96,1.64-1.68l.03-.07-1.84-1.07Z"/>
        <path class="st3" d="M201.35,21.13c.54-.63,1.35-1.09,2.22-1.09,1.14,0,1.98.54,2.57,1.43.62-.87,1.65-1.43,2.74-1.43,2.5,0,3.12,1.99,3.12,4.02v5.81h-1.97v-5.52c0-1.19-.26-2.43-1.57-2.43-1.63,0-1.79,1.67-1.79,3.1v4.86h-2.06v-5.2c0-1.02,0-2.75-1.46-2.75-1.63,0-1.94,1.65-1.94,3.1v4.86h-1.92v-9.56h2.06v.82Z"/>
        <path class="st3" d="M193.5,27.88c-1.59,0-2.87-1.34-2.87-2.92s1.28-2.92,2.87-2.92,2.87,1.32,2.87,2.92-1.28,2.92-2.87,2.92M193.5,20.06c-2.75,0-4.92,2.13-4.92,4.9s2.17,4.9,4.92,4.9,4.92-2.13,4.92-4.9-2.17-4.9-4.92-4.9"/>
      </g>
    </g>
  </g>
</svg>